<svg xmlns="http://www.w3.org/2000/svg" viewBox="0 0 1057.4 9.71"><defs><style>.cls-1{fill:#583b21;}</style></defs><g id="Camada_2" data-name="Camada 2"><g id="Camada_1-2" data-name="Camada 1"><path class="cls-1" d="M1057.15,6.85c.55-.26.24-.84-1.29-.73l-1.09,1Z"/><path class="cls-1" d="M1046.83,5c-1.8.48-3.88,1.33-2.71,2.24,1.78-1,2.22-.56,4.14-1.69,1.53-.12,2.68.32,2.42.68.54-.25,2.38.22,3.21-.4a12.34,12.34,0,0,0-7.17-.17C1046.15,5.45,1046.7,5.19,1046.83,5Z"/><path class="cls-1" d="M896.94,3.46l1,.12A4.91,4.91,0,0,0,896.94,3.46Z"/><path class="cls-1" d="M804.06,2.92c.71,0,1-.13,1-.22C804.44,2.77,803.9,2.83,804.06,2.92Z"/><path class="cls-1" d="M788.2,1.82l.94.07A2,2,0,0,0,788.2,1.82Z"/><path class="cls-1" d="M896.94,3.46l-2.49-.31C894.28,3.47,895.73,3.39,896.94,3.46Z"/><path class="cls-1" d="M1026.16,7.41a6.85,6.85,0,0,0,1.35-.27c-.43.05-.84.08-1.27.11A.79.79,0,0,1,1026.16,7.41Z"/><path class="cls-1" d="M937.88,2.66h.75a4.25,4.25,0,0,0,.63-.41Z"/><path class="cls-1" d="M969.3,2.5c-.71,0-1,.81-1.23,1.18a2.72,2.72,0,0,1,1.55-.58A.86.86,0,0,0,969.3,2.5Z"/><path class="cls-1" d="M1019.12,4l.88-.12C1019.77,3.91,1019.39,3.94,1019.12,4Z"/><path class="cls-1" d="M915.39,2.47a.7.7,0,0,0-.29-.3C915.1,2.28,915.21,2.38,915.39,2.47Z"/><path class="cls-1" d="M36.57,8.81c0-.06,0-.1,0-.15C36.38,8.75,36.33,8.81,36.57,8.81Z"/><path class="cls-1" d="M.15,4.64l.5,0a1.39,1.39,0,0,0,.11-.47Z"/><path class="cls-1" d="M759.19.74l.12,0C760.08.66,759.65.68,759.19.74Z"/><path class="cls-1" d="M492.78,1.36c3,.76-4.91,1-.37,1.81C492,2.84,496.54,1.85,492.78,1.36Z"/><path class="cls-1" d="M1025.35,7.29c-.43,0-.86,0-1.29,0A7.5,7.5,0,0,0,1025.35,7.29Z"/><path class="cls-1" d="M492.41,3.17h0l.47.08Z"/><path class="cls-1" d="M692.32,1.25a2,2,0,0,0,.68.37C693,1.53,692.82,1.43,692.32,1.25Z"/><path class="cls-1" d="M742.13,2.45l-1.23-.11A10.87,10.87,0,0,0,742.13,2.45Z"/><path class="cls-1" d="M666.46,2.44a6.13,6.13,0,0,0-1.82-.07l.28.1A3.09,3.09,0,0,1,666.46,2.44Z"/><path class="cls-1" d="M639.54,2.44a3.53,3.53,0,0,0,.49.17l.86,0Z"/><path class="cls-1" d="M118.38,8.41a3.91,3.91,0,0,1-1.24-.76C117.55,8.25,113.6,8.46,118.38,8.41Z"/><path class="cls-1" d="M1026.15,6.93a1,1,0,0,1-.8.36c.31,0,.6,0,.89,0C1026.32,7.12,1026.34,7,1026.15,6.93Z"/><path class="cls-1" d="M665.36,9.09,661.08,9C662.28,9.05,663.83,9.09,665.36,9.09Z"/><path class="cls-1" d="M311.51,8.29l-1,.1A2.66,2.66,0,0,0,311.51,8.29Z"/><path class="cls-1" d="M648.39,9.09A10.1,10.1,0,0,0,646,8.51a1.58,1.58,0,0,0-.49.22Z"/><path class="cls-1" d="M117.13,7.64a0,0,0,0,1,0,0A0,0,0,0,0,117.13,7.64Z"/><path class="cls-1" d="M89,9.64c4.07,0,1.91-1.08,2.78-1.72,4.86-.31,2.25.82,3.9,1.38C98.68,9,101,8,103.27,8c.17.18.61.25.1.47,3.21-.88,9.53,0,13.27-1.15a1.16,1.16,0,0,1,.49.28,1.49,1.49,0,0,1-.58-1.52c1.83,0,3.4-.7,4.08,0a2.62,2.62,0,0,0-1.73.5l1.91-.32c1.72,1-2.61.37-2.61,1.14,3.73-.34,8.08-1.2,10.94-.91.6,1-6.69.34-2.87,1.25l-4.43-.39c3.38,1.61-2.69-.11.42,1.61,5.82.29,6.52-.52,12.33-.23,1.3-.56-.44-.83.87-1.4C143.72,6.37,142,10,148,8.6c1.58-.68,2.18-2,6.51-1.29l-1.48,1.15c5.64.11,3.22-1.65,9.13-.88-1.05.45-4.43.38-3.58.52,3.83.91,2.71-.65,5.65-.65l.61,1c6-.16,12.61-.9,19.26-1.09-.37.31-1.5.63.05.94,8.39-.51,17.9.12,26,.73l3.09-.88c.72,0,1.34.39.56.56,3.15.34.16-.55,1.68-.9,1.79-.06,2.37.51,1.23.77,5.56-.75,15.85-1.61,21.71-.66l-1.15.26c4.57.35,5.16-1.81,9.39-1l-.81.16c9.9.38,20.85-.43,28.41.9,1.44-1.26,9.8.57,10.44-1.2,5.66.88,4,1.19,12,1.78,2.13.08,3.17-1.1,5.8-1.29l.07.93,3.57-1,1.9,1.1,2.47-.23c-1-.06-2.09-.42-1.94-.69,3.85-.41,9.39.65,9.49,1.12L327.19,8c-.2.37-1.72.5-2.93.74,4.86-.95.88,1,5.34.11-.6-.21.33-.55.43-.74,2.22.56,7.28.56,11,.33l-.71.64c6.76.16,14.25-.31,21.84-.3-2.72-.3-2.09-1.4.13-1.51l.89,1c1.44-.6-2.32-.37.63-1.11,2.83.11,1.9,1.11.27,1.43l3.45-.34c.2.29-.6.45-.81.82,1.41-.61,5.94,1,8-.07l.19.29c7.59,0,11-.33,17.21-.38.12-.84,2.54-.66,4.38-1.34,4.54.27,9.58.93,15.05.86,3.85-.42,1.13-.71,2.86-1.21.28.77,5.74.69,2.91,1.24,6.57-.12,8.39-.15,16.69-.77-.9-.32-1.91-.45-1.39-.72,1.51-.12,3.43.33,3.22.7l-.4.07C444.77,6.61,457,10,464.4,8.4l-.42.08,7.7-.83c3.54.13-2.13.58.5,1,8.3-1.28,13.12.19,20-.67,5.29,2.27,18.78-.16,25.93,1.29l-.41-.53c1.85-.53,2.23.3,3.59.42-.19-.41-2-.48-.85-.77,15.64-.64,32.29.78,48.33,1.27,5.87.14,3.33-2.77,10.73-1.49l-2.1,1c11.84-1.19,24.21,0,35.8-1-.69.23-.71.53-1.84.52,2.44.72,9,0,9.09-.55,1.8.07.42.53,1.53.83,2.46.43,6.16-.92,7.47-.2.22.12-.69.23-1.14.29,1.6-.35,7.45.09,5.92-.74,4.35.39,8.32-.37,11.79.12,2.27-.93,7.45.45,8.17-.87-.31,1.36,7.62,1.1,10.38.46-.92.41,2.39.42,1.31,1,3.14,0,6-.27,5.47-1,5.78,1.63,11.62-1.3,14.88.78,9.32-.73,17.95-1.22,26.34-1.54-.31,1.35-9.28.13-8.92,1.55,8-.55,12.55-1.72,20.44-1.39,2,.18-1.16.59-1.85.82,7.95-.56,15.37.12,22.45-.62,0,.13-.79.27-1.51.37,1.4,0,3.24.2,3.09-.41l-1.36.16C742.64,7,750.4,6,750.65,5.51c-2.36,1.76,7,.44,3.23,2.67.92-.12,2.07-.41,1.86-.82,1.36.12,1.79.36.41.83,5-.34,3.22-1,7.74-1,0,.3-.92.41-1.39.76a23.9,23.9,0,0,1,8.41-.91c-.23.18.22.42-.92.41,6.56-.09,11.19-1.54,18.39-1-2.12,1.29,2.45.42,2.83,1.54l3.87-.33-1.55-.54c3.39,0,6.39-.8,9.31-.43l-2.52.46L806.67,7l-3.59-.42c3.43-.58-.37-1.42,4.14-1.11-.91.12,3.4,0,5.17.68h0a16.65,16.65,0,0,1,5.91-.45c.65.36-.53,1.24-.1,1.47,1.65-.93,7.94-.26,10-1.25-.7.23-.73.82-.5.94l1.39-.76c1.57.24,1.8.36,1.54.83,4.73.14-1.5-1.42,4.11-.81a7.2,7.2,0,0,1-1.15.29c5.64.32,10.89-.48,16.07-.11,1.53,1.13-4.52.28-2.78,1.23,7.47-.21,15.46-1.35,22.69-1.09l-1.35-.12c1-1.59,5.38.78,9,0-.9.12-1.18.89-.93.71,4.94.26,10.11-.39,17.61-.89l-.93.41c2.92.36,7.68.21,10.83.39.93-.4,2.74-.34,1.64-.93,9.71,2.33,18.53-1.25,27.14.69-1,0-2.45.36-1.63.36l7.34-.38c-.58-.69-1-.42-2.51-1A14.58,14.58,0,0,1,940.67,5c-3.3.46,0,1.12,1.46,1.5-.24-.21.25-.44.13-.66,3.83,1.23.64-1.39,5.87-.56l-.27.36a37,37,0,0,1,5.87-.56c.88.8-2.08.37-2.22,1,3,0,5.86-1.52,8.54-.72-1.26.23-3.07.23-4.33.45a15.12,15.12,0,0,0,5.44.85l-.22,0,5,.43-1.28-.26c3.71-2.09,7.56-.38,12.56-1.75-4.86,1.3-.8.75-1.17,1.66,1.27.25,3.22.53,2.66.79,2.37-.73,4,.58,7.29-.49.15.29,2.53,0,2,.76,3.08-.23-.72-.51-.47-.88,4.74-1,11.14,1.21,18-.16,5.87-.56,7-1.55,12.41-2,1.84.47-1.5,1.07-1.5,1.07a27.85,27.85,0,0,0,8,0c-.57.26,0,.47.87.8,2.24-.07,1.5-1.06,4.46-.63a7.94,7.94,0,0,1-2.24,1.17c2.65-.26,5.26-.81,8-1.07.73.5-1.65.77-2.62,1.1,3.08-.23,8-.46,8.93-1.27l-2-.29c1.13,0,.58.7-.25.84-2.64.64-3.8-.27-3.95-.57l1.95-.19c-2-1.71-7.84.28-11.76.18l1.63-1.25-4,1c-.85-.33-1.44-1,.5-1.21-2.82-.62-2.49.44-4.91-.25-.27-.1-.15-.16.1-.21l-2.75.37c.54-.26-.46-.88,1.23-.7-4.94-.72-8,.94-9.82,0l.41-.08c-6.85.42-.66.92-5.8,2L998.93,3.3l-.67.92c-.71,0-2.11-.1-1.85-.47-2.63.63.45.4-1.08,1-3.4-.83-9.38.39-10.14-1.07-1.22.7,3.25.54-.38,1-1-1.56-4.2.27-7.31-.45,1-.81,3.9-.38.79-1.1-1.87,1.37-6-.3-8.67,0-.13,1.09-5.7.46-10.1.82.28-.37-8.28-.6-12.37-1l.12-.19c-.79,1.11-5,.9-8.09,1.13.12-.67.68-.92,2.34-1.22h-2.89a8.92,8.92,0,0,1-3.46.66l.73-.82c-3.84,0-7.74,1-12.69.42-.28.77,3.93,2.14-1.3,2.65-.19-.42-.39-1.13,1-1.3a7.65,7.65,0,0,1-2.5.17l2.09-.7c-2.25-.3-1.18.59-3,.52,0-.59-1.33-.42-1.07-.89a9.93,9.93,0,0,0,2.26,0,17.45,17.45,0,0,1-5.3-.91c.18.34,0,.8-1.49.88-3.85,0-1.32-.71-3.56-1-.93.41-3.38,0-3.45.87a2.5,2.5,0,0,1-1.77-.66c-2,.4-9.29.12-7,1.06l.51.06-.32,0h0c-6.53.88-13.56-.5-20-.12v-.3c-3.86.34-8.6.2-11.36.84-1.14,0-2.69-.54-2.21-.9-2.95.23-3.28.56-7.55.07,3-.52-1-.46,3-.38-3.84-.25-4.71-.73-8.83.08,1.4-.76-2.89-1-4.72-.73l2.69.55c-2,.11-3.84,0-5.66,0l1-1c-7.85-1.22-14.16,2.06-20.14,0-2.08.7,4.27.49,2.41,1.31-3.61-.14-7.38-1.57-8.51-1.57-4.95-.55-4.62,1.46-9.8,1.08.67.35,1.29,1.3-2.58,1.64-3.61-.13-4.44-1.49-2.16-1.78.87,0,1.29.08,1.25.2,1.17-.13,2.7-.28,1.27-.66l-.47.35c-1.79-.36-6.77-.32-5.6-.91-2.73.34-1.17.59.86.77-4.64-.51-7.25,0-12-.36.76.2,1.46.61.7.61-7-.44-3.08.68-7.82.83-2.7-.54,1-1.29-3.81-.84-2.92-.37-.62-.94.54-1.23-4.35.68-8.13-.45-10.61-.58l2.29-.29a27.79,27.79,0,0,1-3.64.17l1.31.71c-1.35-.13-2.48-.13-2.46-.42C764.25,1.31,766.7,2,764,2.67c-1.79-.36-5.46.39-6.08-.56,5.64.32-.62-.95,4.15-1.1a16,16,0,0,1-3.39,0c-.21-.1.19-.19.56-.25-5.4-.84-2.49,1.07-8.08,1.05.71-.53-1.3-1-2.21-.9,2.25,0,1.08.89-1,1.3-3.59-.42-3.9.31-5.78.26l2.15.19c-.73.54-2.52.47-5,.63-.22-.41,2.27-.28,1.37-.46-2.77.93-6.27-1-10.14-.34-1.79-.36-.17-1-1.75-1.25-4.34.69-4.7-.73-9.26-.16,1.32.72,1.55.54-1.67,1.24l7.5-.5-4.81,1c2.26,0,4.77-.45,6.13-.33-2.29.59-2.06.41-1,1-3.1-1.07-6.14.63-9.72-.1l.11-1.77c-5.38-.79-9.56.91-16.55.46l2.25.31c-.94.71-4.32.1-6.58.38.21-.59-1.2-.8-2.17-1.17.12.44-5.11,0-5.75,1.14L684.13,2c-5.64-.32-6.43,1.69-11.86,1.49,1.64-.65-.83-1.07,2.8-1.53-1.81,0-3.43-.11-3.46.3-1.06-.37-5,.8-6.69.23-.76.26-1,.89-3,.84-.23-.12,0-.3,0-.3,0,.3-3.18.4-1.4,1.06C654.9,2.22,644.89,4.2,640,2.61c-3.95.2-8.71.39-12.3.44.23-.18,0-.3.69-.24-4.95-.55-3,1.7-8.67,1.09-2.88-1,3-.52,1.2-.88-.78-1.95-6.8.26-10.59-.87l.92-.12c-2.9-.66-7.07.74-11.8.6,0,0,.23-.17,0-.29-3.24,1-9.37,1.32-13.92,1.6,1.42-.77,2.07-.41,1.2-1.18-2,.11.6,1.24-3.47,1.46-1.33-.42-4.26-.78-4.65-1.61l3.84,0c-2-1.07-5,0-7-.15l.26-.46c-5.89.15-6,1.33-12.3,1.24l.65.36c-3.45,1.16-2.9-.66-6.35.21l-1-1.19c-2.28.29-8,1.15-12.09,1.37,2.32-.88,7.11-1.33,10.07-1.85-2.26,0-7.68.09-8.86.67a10.23,10.23,0,0,1,3-.22,34.81,34.81,0,0,1-10.94,1.37c.8-2.29-11.75-.58-15-2.36-8,.85-15.82-.36-25.11-.23,3.3,1.79-2.71.05-2.14,1.89a11.16,11.16,0,0,1-3.18,0l-6.56-1.1c-1.55-.53,2.06-.4,1.86-.82-4.74-.14-2-.77-5.12-1.26.64.66-1.65.94-4.35.69l3.8.85c-6.62,1-5.72-1.54-12.39-.58l2.11-.57c-3.43.34-12.64,0-16,1.46-.6-.21-1.4-.72.11-.85-8.19-.22-18.22,1.57-24.58.66l.62-.45c-1.53.13-2.66.85-4.57.39.1-.18.61-.44-.1-.47a23.24,23.24,0,0,1-6.08.53l1.73-.51c-8-.59-12.25,1.23-18.94,1.54,0-1.32-6.27-1.75-9.4-2l.11-.18c-9.3-.17-15.8,1.09-24.4,1.61-5.35-1.43-18.11-.6-26.69-1.4,1.31.23-.22,1-1.75,1.16-2-.27-5.57.91-5.25-.3l.72,0c-1.52-1.19-5.66-.88-8.89-.91l-.54,1.59c-8.46-2.31-22.16.84-26.78-1.22-2,.39-4.57.39-6.59.79l.11-.85C289,.82,286.13.71,279.13.91l1.43-.6c-3.94-.06-5,2.45-8.62,2.5l-1.09-1.27C264,1.56,257,.45,250.21,1.6c.11-.19.31-.56,1.43-.61-3.24,0-12.53-.86-11.36.88-.08-1.13-7.09-.11-10.81.39l.58-.83c-3.14,1.06-3.24,1.36-7.62,1.65-1-.11-.91-.67.47-.45-3.46-.44-2.69.79-6.89.34l1.57-.53c-3.56-.06-3.28.22-5.24.84-2.24.34-6.75-.21-7.27-1a7.16,7.16,0,0,1-4.53.86c-.28-.29.48-.47.87-.55-5.95-.57-8.85,1-12.94.15a.84.84,0,0,0-.69-.5c4.72,0,8.53.07,8.17.13,0-.77-3.82-.91-.78-2-3.06.58-8.3,1.84-12,1.48a1.83,1.83,0,0,1-.5-.27l.39-.09a8.93,8.93,0,0,0-2.35.13,27.62,27.62,0,0,0-3.09-.23c-.44-.64-4.37-.35-6.28-.38.16.84-2.33.71,0,1.4-.3,0,.36-.1,1.63-.13a7.38,7.38,0,0,0,.81-.09l-.13.08c1.25,0,2.88,0,4.73-.06a9.71,9.71,0,0,1-5.18.32c-1,.54-2.05,1.1-2.66,1.36-2.6-1.17-7.62-1.81-8.32-2.54-5.82.48-13.7.32-17.35,1.9-1.66.2-1.9-.45-2.52-.7a18.91,18.91,0,0,0,2.6-.36c-3.3.4-9.79.15-10.57,1.26-4.17-.5,2.34-1-3.39-.84l.78-.34C120.49.57,113.44,5.17,101,2.9c.86.14,1.3.2,1.47.39-14.23-1-29.32.94-43.37-.65-4-.32-4.42.39-6.86.92l-.86-.9-4.17,1c-5.9.77-10.22-2.22-17.7-.77l1,.61c-2.68-.12-8.5.36-8.06-.35a2.23,2.23,0,0,1-1.93.32L20.36,3l-6.59.81c-5.12-.34.8-1.88-6.67-2C4.33,2.06-.8,3.26.25,3.57c1.11,0,2.86.3,2.94.77L.65,4.59C.19,6-1.76,7.42,4.47,8.39l4.34-.85,1.4.68-3.66,0c2.08.64,3.39.07,4.86-.31a3.19,3.19,0,0,0,1.82.74l4.26-1.33c.52.54-1.91,1.08,1,1.38,2-.62-1.92-1.22,1.39-1.63,2.08.64,1.47,1.15,3.91.61.34.36-.18.59-1.14.75,2.17-.43,5.74-.18,6.86-.93,2.16.79,7.32-.2,7.11,1.12a23,23,0,0,1,5.81-1.09c-3.64,1.58,7.46.09,6.5,1.79,2.69-1.42,9.73-.63,14.5-1.42a2.49,2.49,0,0,1-1.21.27A29.74,29.74,0,0,1,67.36,9c.34-1.17,4.53-1.44,6.78-2.17,3.29,1.14-2,1.38-1,2.47-.16-1,5.72-1,4.6-1.74,2.52.7,2.17.34,3.47,1.31.44-1.47,2.34-.25,4.43-1.15,3.65.73.94,1.38,4.94.93C92.52,9.12,89,9.64,89,9.64ZM184.14,7.1v0l-2,0Zm8,0c-1,0-2.18,0-3.47,0-.28-.29,0-.59.83-.57C189.07,6.67,191,6.84,192.14,7.09ZM175.22,1.24c1.27-.12,1.69.05,1.87.22l-2.22.1s-.11.07-.15.11A1.26,1.26,0,0,1,175.22,1.24Z"/><path class="cls-1" d="M173,2.35c-.19,0-.29,0-.52.06.25.07.5.14.75.19l.45-.26Z"/><path class="cls-1" d="M898.07,3.6l-.17,0a1.38,1.38,0,0,1,.36.12A1,1,0,0,1,898.07,3.6Z"/><polygon class="cls-1" points="302.6 8.7 302.59 8.49 301.89 8.68 302.6 8.7"/><path class="cls-1" d="M942.13,6.49a1.23,1.23,0,0,0,.58.22A1.72,1.72,0,0,0,942.13,6.49Z"/><path class="cls-1" d="M961.16,6.68l2.69.3C962.68,6.81,961.84,6.73,961.16,6.68Z"/><path class="cls-1" d="M975.79,7.1a.89.89,0,0,0,.29-.36h0Z"/><path class="cls-1" d="M743.14,8.09l-.56,0C741.25,8.29,742.15,8.23,743.14,8.09Z"/><path class="cls-1" d="M812.38,6.12c-.74.15-1.46.3-2.23.4C811.38,6.58,812.34,6.6,812.38,6.12Z"/><path class="cls-1" d="M665.83,9.11v0h-.48Z"/><path class="cls-1" d="M806.93,6.51a12.38,12.38,0,0,0,3.22,0A18.22,18.22,0,0,0,806.93,6.51Z"/><path class="cls-1" d="M1039.21,7.48l.7,0c0-.06,0-.1.09-.14Z"/><path class="cls-1" d="M1040,7.38l.78-.1A1.64,1.64,0,0,0,1040,7.38Z"/><path class="cls-1" d="M1042.43,7.07l-1.65.21A3.43,3.43,0,0,0,1042.43,7.07Z"/><path class="cls-1" d="M1019.84,7.09l-.22.31A.39.39,0,0,0,1019.84,7.09Z"/><path class="cls-1" d="M1014,7.18c1.41.07,3.52.65,5.48.46l.19-.24C1018.7,7.85,1015.29,6.67,1014,7.18Z"/><path class="cls-1" d="M989.38,3.4l4.94.25c-.87-.33-2-.77.24-.85C988.34,1.83,995.85,3.53,989.38,3.4Z"/><path class="cls-1" d="M974.09,2.93c2.65-.15,0-.47.11-.66C972.52,2.57,972.11,2.64,974.09,2.93Z"/><path class="cls-1" d="M863.56,2.93l.27-.77C861.79,2.27,863.81,2.46,863.56,2.93Z"/><polygon class="cls-1" points="842.43 6.89 844.42 7.37 845.37 6.67 842.43 6.89"/><polygon class="cls-1" points="829.95 1.43 830.85 1.32 827.44 1.59 829.95 1.43"/><path class="cls-1" d="M644.32,1.7l.62.94C646.32,2.47,646.61,1.41,644.32,1.7Z"/><path class="cls-1" d="M564.19,2.66a7.24,7.24,0,0,0-4.52-.31C561.47,2.41,563.27,2.78,564.19,2.66Z"/><polygon class="cls-1" points="323.85 1.12 325.46 0.81 322.43 1.07 323.85 1.12"/></g></g></svg>